<svg width="24" height="23" viewBox="0 0 24 23" fill="none" xmlns="http://www.w3.org/2000/svg">
<path fill-rule="evenodd" clip-rule="evenodd" d="M21.6485 15.6203L18.255 15.2505C17.44 15.1613 16.6384 15.4291 16.0639 15.9774L13.6056 18.3236C9.82469 16.4874 6.72511 13.5419 4.80124 9.9205L7.27288 7.56151C7.84737 7.0132 8.12794 6.24813 8.03441 5.4703L7.64697 2.25698C7.48664 0.969097 6.35102 0 4.98828 0H2.67696C1.16725 0 -0.0886138 1.19862 0.00490786 2.63952C0.713001 13.5291 9.83805 22.2255 21.2343 22.9013C22.744 22.9906 23.9999 21.7919 23.9999 20.351V18.1451C24.0133 16.8572 22.9979 15.7733 21.6485 15.6203Z" fill="white"/>
</svg>
