<svg width="24" height="23" viewBox="0 0 24 23" fill="none" xmlns="http://www.w3.org/2000/svg">
<path d="M12 0C8.741 0 8.33234 0.0131844 7.05242 0.068922C5.77516 0.124523 4.90283 0.31815 4.13954 0.601293C3.35044 0.893937 2.68123 1.28555 2.01406 1.92226C1.34695 2.55902 0.936629 3.19772 0.630009 3.95086C0.333344 4.67936 0.13047 5.51192 0.0722135 6.73096C0.013814 7.95255 0 8.34258 0 11.4531C0 14.5635 0.013814 14.9535 0.0722135 16.1751C0.13047 17.3942 0.333344 18.2267 0.630009 18.9552C0.936629 19.7084 1.34695 20.3471 2.01406 20.9838C2.68123 21.6205 3.35044 22.0121 4.13954 22.3048C4.90283 22.5879 5.77516 22.7816 7.05242 22.8372C8.33234 22.8929 8.741 22.9061 12 22.9061C15.259 22.9061 15.6677 22.8929 16.9476 22.8372C18.2248 22.7816 19.0972 22.5879 19.8605 22.3048C20.6496 22.0121 21.3188 21.6205 21.9859 20.9838C22.6531 20.3471 23.0634 19.7084 23.37 18.9552C23.6667 18.2267 23.8695 17.3942 23.9278 16.1751C23.9862 14.9535 24 14.5635 24 11.4531C24 8.34258 23.9862 7.95255 23.9278 6.73096C23.8695 5.51192 23.6667 4.67936 23.37 3.95086C23.0634 3.19772 22.6531 2.55902 21.9859 1.92226C21.3188 1.28555 20.6496 0.893937 19.8605 0.601293C19.0972 0.31815 18.2248 0.124523 16.9476 0.068922C15.6677 0.0131844 15.259 0 12 0Z" fill="white"/>
</svg>
