<svg width="37" height="37" viewBox="0 0 37 37" fill="none" xmlns="http://www.w3.org/2000/svg">
<path d="M6.84617 24.6301H24.1443C24.4127 24.6301 24.6298 24.4126 24.6298 24.1445V6.84641C24.6298 6.57828 24.4127 6.36084 24.1443 6.36084H6.84617C6.57781 6.36084 6.3606 6.57828 6.3606 6.84641V24.1445C6.3606 24.4126 6.57781 24.6301 6.84617 24.6301ZM7.33174 7.33198H23.6587V23.6589H7.33174V7.33198Z" fill="#868686"/>
<path d="M6.50321 29.0647L7.93587 30.4972C8.03072 30.592 8.15497 30.6394 8.27921 30.6394C8.40342 30.6394 8.52766 30.592 8.62251 30.4972C8.81217 30.3075 8.81217 30 8.62251 29.8105L8.01849 29.2067H22.9722L22.3684 29.8105C22.1787 30.0002 22.1787 30.3077 22.3684 30.4972C22.4633 30.592 22.5875 30.6394 22.7117 30.6394C22.836 30.6394 22.9602 30.592 23.055 30.4972L24.4872 29.0648C24.5321 29.02 24.5677 28.9662 24.5924 28.9065C24.6415 28.7879 24.6415 28.6542 24.5924 28.5356C24.5678 28.476 24.5322 28.4223 24.4873 28.3775L23.055 26.945C22.8654 26.7553 22.5581 26.7553 22.3684 26.945C22.1787 27.1344 22.1787 27.442 22.3684 27.6316L22.9722 28.2355H8.01849L8.62251 27.6316C8.81217 27.4422 8.81217 27.1347 8.62251 26.945C8.43281 26.7553 8.12557 26.7553 7.93587 26.945L6.50309 28.3775C6.45853 28.422 6.42292 28.4752 6.39827 28.5342C6.37377 28.5929 6.3606 28.6563 6.3606 28.7211C6.3606 28.7859 6.37377 28.8493 6.39827 28.9079C6.42292 28.967 6.45861 29.0202 6.50321 29.0647Z" fill="#868686"/>
<path d="M29.8105 8.62249C29.9054 8.71734 30.0296 8.76476 30.1539 8.76476C30.2781 8.76476 30.4023 8.71734 30.4972 8.62249C30.6869 8.43306 30.6869 8.12555 30.4972 7.93589L29.0651 6.50353C29.0206 6.45896 28.9674 6.42328 28.9083 6.39859C28.8497 6.37405 28.7863 6.36084 28.7213 6.36084C28.6564 6.36084 28.593 6.37405 28.5344 6.39859C28.4753 6.42328 28.422 6.459 28.3775 6.50364L26.945 7.93589C26.7553 8.12533 26.7553 8.43283 26.945 8.62249C27.1347 8.81219 27.4419 8.81219 27.6316 8.62249L28.2357 8.01851V22.9724L27.6316 22.3684C27.4419 22.1787 27.1347 22.1787 26.945 22.3684C26.7553 22.5581 26.7553 22.8656 26.945 23.055L28.3775 24.4873C28.422 24.532 28.4753 24.5677 28.5346 24.5924C28.5932 24.6169 28.6566 24.6301 28.7213 24.6301C28.7863 24.6301 28.8497 24.6169 28.9083 24.5923C28.9674 24.5676 29.0206 24.532 29.0651 24.4874L30.4972 23.055C30.6869 22.8654 30.6869 22.5578 30.4972 22.3684C30.3075 22.1787 30.0002 22.1787 29.8105 22.3684L29.2069 22.9722V8.01873L29.8105 8.62249Z" fill="#868686"/>
</svg>
