<svg width="32" height="32" viewBox="0 0 32 32" fill="none" xmlns="http://www.w3.org/2000/svg">
<path fill-rule="evenodd" clip-rule="evenodd" d="M25.6401 20.3213L22.2534 19.9522C21.4401 19.8632 20.6401 20.1304 20.0667 20.6776L17.6134 23.0191C13.8401 21.1866 10.7467 18.247 8.82672 14.6329L11.2934 12.2787C11.8667 11.7315 12.1467 10.968 12.0534 10.1917L11.6667 6.98485C11.5067 5.69957 10.3734 4.73242 9.01339 4.73242H6.70672C5.20005 4.73242 3.94672 5.92863 4.04005 7.36662C4.74672 18.2343 13.8534 26.9131 25.2267 27.5876C26.7334 27.6767 27.9867 26.4805 27.9867 25.0425V22.8409C28.0001 21.5557 26.9867 20.474 25.6401 20.3213Z" fill="white"/>
</svg>
