<svg width="33" height="32" viewBox="0 0 33 32" fill="none" xmlns="http://www.w3.org/2000/svg">
<path d="M16.6855 8.22266C16.6855 8.22266 21.7235 8.2228 25.082 8.46094C25.5508 8.51533 26.5736 8.5199 27.4863 9.45703C28.2006 10.1658 28.4372 11.7689 28.4404 11.791C28.4404 11.791 28.6806 13.6948 28.6807 15.5977V17.3828C28.6806 19.2865 28.4404 21.1895 28.4404 21.1895C28.4375 21.2098 28.201 22.8143 27.4863 23.5234C26.5736 24.4606 25.5508 24.4654 25.082 24.5205C21.7238 24.7586 16.6815 24.7656 16.6807 24.7656C16.6756 24.7656 10.4397 24.71 8.52051 24.5293C7.98644 24.4316 6.78744 24.4605 5.87402 23.5234C5.15942 22.8142 4.92386 21.2098 4.9209 21.1895C4.9209 21.1895 4.68068 19.2865 4.68066 17.3828V15.5977C4.68069 13.6948 4.9209 11.791 4.9209 11.791C4.92412 11.7689 5.15981 10.1658 5.87402 9.45703C6.78752 8.51987 7.8098 8.51533 8.2793 8.46094C11.6378 8.2228 16.6758 8.22266 16.6758 8.22266H16.6855ZM14.2031 19.5449L20.6865 16.252L14.2021 12.9365L14.2031 19.5449Z" fill="white"/>
</svg>
