<svg width="21" height="22" viewBox="0 0 21 22" fill="none" xmlns="http://www.w3.org/2000/svg">
<path d="M16.392 7.24941C16.392 5.55172 15.7598 3.92357 14.6343 2.72312C13.5089 1.52267 11.9826 0.848267 10.391 0.848267C8.7994 0.848267 7.27301 1.52267 6.1476 2.72312C5.02218 3.92357 4.38993 5.55172 4.38993 7.24941C4.38993 14.7174 1.3894 16.8511 1.3894 16.8511H19.3926C19.3926 16.8511 16.392 14.7174 16.392 7.24941Z" stroke="black" stroke-width="1.32602" stroke-linecap="round" stroke-linejoin="round"/>
<path d="M12.1212 19.8516C11.9454 20.1547 11.6931 20.4064 11.3893 20.5812C11.0857 20.7561 10.7414 20.8482 10.3909 20.8482C10.0405 20.8482 9.69622 20.7561 9.39257 20.5812C9.08892 20.4064 8.83648 20.1547 8.66064 19.8516" stroke="black" stroke-width="1.32602" stroke-linecap="round" stroke-linejoin="round"/>
</svg>
