<svg width="21" height="21" viewBox="0 0 21 21" fill="none" xmlns="http://www.w3.org/2000/svg">
<path d="M19.3475 5.6595L12.785 2.05012C12.6881 1.99681 12.5793 1.96886 12.4687 1.96886C12.3581 1.96886 12.2493 1.99681 12.1524 2.05012L5.58992 5.6595C5.48702 5.71615 5.40122 5.79938 5.34147 5.90049C5.28171 6.00161 5.25018 6.11692 5.25018 6.23437C5.25018 6.35183 5.28171 6.46713 5.34147 6.56825C5.40122 6.66937 5.48702 6.7526 5.58992 6.80925L11.8125 10.2316V17.2659L9.8201 16.17L9.18748 17.3191L12.1524 18.9499C12.2493 19.0033 12.3581 19.0313 12.4687 19.0313C12.5794 19.0313 12.6882 19.0033 12.785 18.9499L19.3475 15.3405C19.4505 15.2839 19.5363 15.2007 19.5961 15.0995C19.6559 14.9984 19.6875 14.8831 19.6875 14.7656V6.23437C19.6875 6.1169 19.6559 6.00158 19.5961 5.90046C19.5363 5.79934 19.4505 5.71612 19.3475 5.6595ZM12.4687 3.37444L17.6695 6.23437L12.4687 9.09431L7.26795 6.23437L12.4687 3.37444ZM18.375 14.3778L13.125 17.2653V10.2309L18.375 7.34344V14.3778Z" fill="black"/>
<path d="M6.5625 10.5H1.3125V9.1875H6.5625V10.5ZM7.875 15.75H2.625V14.4375H7.875V15.75ZM9.1875 13.125H3.9375V11.8125H9.1875V13.125Z" fill="black"/>
</svg>
