<svg width="21" height="21" viewBox="0 0 21 21" fill="none" xmlns="http://www.w3.org/2000/svg">
<g clip-path="url(#clip0_144_14)">
<path d="M7.38028 14.7641C5.40874 14.7641 3.55508 13.9962 2.16084 12.6019C-0.717024 9.72407 -0.717024 5.0409 2.16084 2.16304C3.55512 0.768798 5.40878 0.000862122 7.38028 0.000862122C9.35182 0.000862122 11.2055 0.768798 12.5997 2.16304C13.9943 3.55729 14.7622 5.41095 14.7622 7.38249C14.7626 9.35402 13.9946 11.2077 12.6004 12.6019C11.2059 13.9962 9.35219 14.7641 7.38028 14.7641ZM7.38028 0.328946C5.49619 0.328946 3.72489 1.06292 2.39278 2.39503C-0.357276 5.14504 -0.357276 9.61997 2.39278 12.37C3.72489 13.7021 5.49619 14.4361 7.38028 14.4361C9.26437 14.4361 11.036 13.7021 12.3684 12.37C13.7005 11.0376 14.4345 9.26658 14.4341 7.38249C14.4341 5.49839 13.7001 3.72709 12.3678 2.39499C11.0357 1.06292 9.26442 0.328946 7.38028 0.328946Z" fill="black"/>
<path d="M7.38036 14.1073C5.58408 14.1073 3.89505 13.408 2.62484 12.138C1.35492 10.8681 0.655518 9.17946 0.655518 7.38281C0.655846 5.58617 1.35524 3.89751 2.6255 2.62759C3.89542 1.35729 5.58441 0.657646 7.38101 0.657646C9.17733 0.657646 10.866 1.357 12.136 2.62697C14.7575 5.24918 14.7575 9.5155 12.1366 12.1381C10.866 13.408 9.17701 14.1073 7.38036 14.1073ZM7.38101 0.985689C5.67185 0.985689 4.06556 1.65113 2.85744 2.85953C1.64933 4.06764 0.98393 5.67398 0.983602 7.38281C0.983602 9.09165 1.64867 10.698 2.85679 11.9061C4.0649 13.1138 5.67152 13.7793 7.38036 13.7793C9.08923 13.7793 10.6962 13.1138 11.9046 11.9061C14.3977 9.41169 14.3974 5.35295 11.904 2.85887C10.6962 1.65113 9.08989 0.985689 7.38101 0.985689Z" fill="black"/>
<path d="M2.13135 7.54716C2.0407 7.54716 1.96729 7.47378 1.96729 7.38314C1.96729 4.3986 4.3957 1.97018 7.38024 1.97018C7.47093 1.97018 7.5443 2.04356 7.5443 2.13421C7.54431 2.15575 7.54008 2.17709 7.53184 2.197C7.52359 2.2169 7.51151 2.23499 7.49627 2.25023C7.48103 2.26546 7.46294 2.27754 7.44303 2.28578C7.42312 2.29401 7.40179 2.29824 7.38024 2.29823C4.57641 2.29823 2.29537 4.57927 2.29537 7.38314C2.29538 7.40468 2.29114 7.42602 2.28291 7.44592C2.27467 7.46583 2.26259 7.48391 2.24735 7.49914C2.23212 7.51438 2.21403 7.52646 2.19413 7.5347C2.17422 7.54294 2.15289 7.54717 2.13135 7.54716ZM13.7473 15.0726C13.7257 15.0726 13.7044 15.0684 13.6845 15.0601C13.6646 15.0519 13.6465 15.0398 13.6313 15.0245L12.1365 13.5297C12.1213 13.5145 12.1092 13.4964 12.1009 13.4765C12.0927 13.4566 12.0885 13.4353 12.0885 13.4137C12.0885 13.3922 12.0927 13.3709 12.101 13.351C12.1092 13.3311 12.1213 13.313 12.1365 13.2978C12.1517 13.2825 12.1698 13.2705 12.1897 13.2622C12.2096 13.254 12.2309 13.2498 12.2525 13.2498C12.274 13.2498 12.2953 13.254 12.3152 13.2622C12.3351 13.2705 12.3532 13.2826 12.3684 13.2978L13.8633 14.7926C13.8862 14.8155 13.9019 14.8448 13.9082 14.8766C13.9146 14.9084 13.9113 14.9414 13.8989 14.9714C13.8865 15.0014 13.8654 15.027 13.8384 15.045C13.8114 15.063 13.7797 15.0726 13.7473 15.0726ZM14.907 13.9135C14.8854 13.9135 14.8641 13.9093 14.8442 13.9011C14.8243 13.8928 14.8062 13.8807 14.791 13.8655L13.2962 12.37C13.2655 12.3392 13.2482 12.2975 13.2482 12.254C13.2482 12.2105 13.2655 12.1688 13.2962 12.1381C13.327 12.1073 13.3687 12.09 13.4122 12.09C13.4557 12.09 13.4974 12.1073 13.5282 12.1381L15.023 13.6336C15.0459 13.6565 15.0616 13.6857 15.0679 13.7175C15.0743 13.7494 15.071 13.7824 15.0586 13.8123C15.0462 13.8423 15.0252 13.8679 14.9982 13.8859C14.9712 13.904 14.9394 13.9136 14.907 13.9135Z" fill="black"/>
<path d="M13.5154 15.3052C13.483 15.3052 13.4512 15.2956 13.4242 15.2776C13.3973 15.2596 13.3762 15.2339 13.3638 15.204C13.3514 15.174 13.3481 15.141 13.3545 15.1092C13.3608 15.0773 13.3765 15.0481 13.3994 15.0252L15.0231 13.4016C15.0538 13.3708 15.0955 13.3535 15.139 13.3535C15.1825 13.3535 15.2242 13.3708 15.255 13.4016C15.2857 13.4323 15.303 13.4741 15.303 13.5176C15.303 13.561 15.2857 13.6028 15.255 13.6335L13.6314 15.2571C13.6162 15.2724 13.5981 15.2845 13.5782 15.2927C13.5583 15.301 13.537 15.3052 13.5154 15.3052Z" fill="black"/>
<path d="M20.475 19.0173C20.4535 19.0173 20.4322 19.0131 20.4123 19.0048C20.3923 18.9966 20.3743 18.9845 20.359 18.9692L15.023 13.6335C14.9922 13.6028 14.975 13.561 14.975 13.5176C14.975 13.4741 14.9922 13.4323 15.023 13.4016C15.0537 13.3708 15.0954 13.3535 15.1389 13.3535C15.1824 13.3535 15.2241 13.3708 15.2549 13.4016L20.591 18.7373C20.614 18.7602 20.6296 18.7894 20.6359 18.8213C20.6423 18.8531 20.639 18.8861 20.6266 18.9161C20.6142 18.946 20.5932 18.9717 20.5662 18.9897C20.5392 19.0077 20.5075 19.0173 20.475 19.0173ZM18.8732 20.6621C18.8516 20.6621 18.8303 20.6579 18.8104 20.6496C18.7905 20.6414 18.7724 20.6293 18.7572 20.614L13.3994 15.2571C13.3841 15.2419 13.372 15.2238 13.3638 15.2039C13.3556 15.184 13.3513 15.1627 13.3513 15.1411C13.3513 15.1196 13.3556 15.0983 13.3638 15.0784C13.372 15.0585 13.3841 15.0404 13.3994 15.0252C13.4146 15.0099 13.4327 14.9979 13.4526 14.9896C13.4725 14.9814 13.4938 14.9771 13.5153 14.9771C13.5369 14.9771 13.5582 14.9814 13.5781 14.9896C13.598 14.9979 13.6161 15.0099 13.6313 15.0252L18.9891 20.3821C19.0121 20.405 19.0277 20.4342 19.0341 20.466C19.0404 20.4979 19.0372 20.5308 19.0248 20.5608C19.0123 20.5908 18.9913 20.6164 18.9643 20.6345C18.9374 20.6525 18.9056 20.6621 18.8732 20.6621Z" fill="black"/>
<path d="M19.6857 20.9991C19.3349 20.9991 19.0052 20.8623 18.7573 20.614C18.742 20.5988 18.73 20.5807 18.7217 20.5608C18.7135 20.5409 18.7092 20.5196 18.7092 20.4981C18.7092 20.4765 18.7135 20.4552 18.7217 20.4353C18.73 20.4154 18.742 20.3973 18.7573 20.3821C18.7725 20.3669 18.7906 20.3548 18.8105 20.3465C18.8304 20.3383 18.8517 20.3341 18.8732 20.3341C18.8948 20.3341 18.9161 20.3383 18.936 20.3465C18.9559 20.3548 18.974 20.3669 18.9892 20.3821C19.1753 20.5686 19.4227 20.6711 19.6857 20.6711H19.6864C19.949 20.6707 20.1954 20.5686 20.3806 20.3828C20.567 20.1966 20.6695 19.9496 20.6695 19.6869C20.6695 19.4239 20.567 19.1766 20.3809 18.9904C20.3657 18.9752 20.3536 18.9571 20.3454 18.9372C20.3371 18.9173 20.3329 18.896 20.3329 18.8745C20.3329 18.8529 20.3371 18.8316 20.3454 18.8117C20.3536 18.7918 20.3657 18.7737 20.3809 18.7585C20.3961 18.7433 20.4142 18.7312 20.4341 18.7229C20.454 18.7147 20.4753 18.7105 20.4969 18.7105C20.5184 18.7105 20.5397 18.7147 20.5596 18.7229C20.5795 18.7312 20.5976 18.7433 20.6129 18.7585C20.8612 19.0068 20.9976 19.3364 20.9976 19.6869C20.9976 20.0374 20.8612 20.3668 20.6129 20.6147C20.3659 20.8623 20.0368 20.9989 19.6864 20.9992L19.6857 20.9991Z" fill="black"/>
<path d="M20.033 19.5023C20.0115 19.5023 19.9901 19.4981 19.9702 19.4899C19.9503 19.4816 19.9323 19.4695 19.917 19.4543L15.0231 14.5607C15.0079 14.5454 14.9958 14.5274 14.9875 14.5075C14.9793 14.4876 14.9751 14.4662 14.9751 14.4447C14.975 14.4232 14.9793 14.4019 14.9875 14.382C14.9958 14.3621 15.0078 14.344 15.0231 14.3287C15.0383 14.3135 15.0564 14.3014 15.0763 14.2932C15.0962 14.285 15.1175 14.2807 15.139 14.2807C15.1606 14.2807 15.1819 14.2849 15.2018 14.2932C15.2217 14.3014 15.2398 14.3135 15.255 14.3287L20.1489 19.2224C20.1719 19.2453 20.1875 19.2745 20.1938 19.3063C20.2001 19.3381 20.1969 19.3711 20.1845 19.4011C20.1721 19.431 20.1511 19.4566 20.1241 19.4747C20.0972 19.4927 20.0655 19.5023 20.033 19.5023ZM10.661 7.54909H4.09981C4.07827 7.5491 4.05694 7.54487 4.03703 7.53663C4.01713 7.52839 3.99904 7.51631 3.98381 7.50107C3.96857 7.48584 3.95649 7.46776 3.94825 7.44785C3.94002 7.42795 3.93578 7.40661 3.93579 7.38507V6.72894C3.93579 6.6383 4.00917 6.56488 4.09981 6.56488H10.661C10.7516 6.56488 10.825 6.63826 10.825 6.72894V7.38507C10.825 7.40662 10.8208 7.42795 10.8126 7.44786C10.8043 7.46777 10.7922 7.48586 10.777 7.50109C10.7618 7.51632 10.7437 7.5284 10.7238 7.53664C10.7038 7.54488 10.6825 7.54911 10.661 7.54909ZM4.26388 7.22105H10.4969V6.89296H4.26388V7.22105Z" fill="black"/>
<path d="M5.08353 10.8296C5.04564 10.8296 5.00895 10.8164 4.97969 10.7923C4.95043 10.7683 4.93041 10.7348 4.92303 10.6977L4.2669 7.4171C4.26264 7.39598 4.26259 7.37422 4.26677 7.35308C4.27094 7.33193 4.27925 7.31183 4.29121 7.2939C4.30318 7.27598 4.31857 7.2606 4.3365 7.24865C4.35443 7.23669 4.37455 7.2284 4.39569 7.22424C4.48088 7.20628 4.57062 7.26366 4.58855 7.35303L5.24463 10.6336C5.2489 10.6547 5.24894 10.6765 5.24477 10.6976C5.2406 10.7188 5.23229 10.7389 5.22032 10.7568C5.20836 10.7747 5.19297 10.7901 5.17504 10.802C5.15711 10.814 5.13699 10.8223 5.11585 10.8264C5.10521 10.8286 5.09438 10.8297 5.08353 10.8296Z" fill="black"/>
<path d="M9.67675 10.8296H5.08394C4.9933 10.8296 4.91992 10.7563 4.91992 10.6656C4.91992 10.575 4.9933 10.5016 5.08394 10.5016H9.67675C9.76739 10.5016 9.84077 10.575 9.84077 10.6656C9.84077 10.7563 9.76744 10.8296 9.67675 10.8296Z" fill="black"/>
<path d="M9.67692 10.8296C9.666 10.8296 9.65514 10.8287 9.64455 10.8264C9.62341 10.8223 9.6033 10.814 9.58537 10.802C9.56745 10.7901 9.55206 10.7747 9.54009 10.7568C9.52812 10.7389 9.51981 10.7188 9.51564 10.6976C9.51147 10.6765 9.51151 10.6547 9.51576 10.6336L10.1719 7.35304C10.1899 7.26367 10.2792 7.20665 10.3647 7.22425C10.3859 7.22841 10.406 7.23671 10.4239 7.24866C10.4419 7.26062 10.4572 7.276 10.4692 7.29392C10.4812 7.31184 10.4895 7.33195 10.4937 7.35309C10.4978 7.37423 10.4978 7.39598 10.4935 7.4171L9.83741 10.6977C9.83004 10.7348 9.81002 10.7683 9.78076 10.7923C9.7515 10.8164 9.7148 10.8296 9.67692 10.8296ZM7.38016 9.84548C7.35862 9.84549 7.33729 9.84125 7.31738 9.83301C7.29748 9.82477 7.27939 9.81269 7.26416 9.79746C7.24893 9.78223 7.23684 9.76414 7.22861 9.74424C7.22037 9.72433 7.21613 9.703 7.21614 9.68145V8.36924C7.21613 8.3477 7.22037 8.32637 7.22861 8.30646C7.23684 8.28656 7.24893 8.26847 7.26416 8.25324C7.27939 8.238 7.29748 8.22592 7.31738 8.21768C7.33729 8.20944 7.35862 8.20521 7.38016 8.20522C7.47085 8.20522 7.54423 8.2786 7.54423 8.36924V9.68145C7.54424 9.703 7.54 9.72434 7.53176 9.74425C7.52352 9.76415 7.51143 9.78224 7.49619 9.79747C7.48096 9.81271 7.46287 9.82479 7.44296 9.83302C7.42305 9.84126 7.40171 9.84549 7.38016 9.84548ZM8.36437 9.84548C8.34283 9.84549 8.3215 9.84125 8.30159 9.83301C8.28169 9.82477 8.2636 9.81269 8.24837 9.79746C8.23314 9.78223 8.22106 9.76414 8.21282 9.74424C8.20458 9.72433 8.20034 9.703 8.20035 9.68145V8.36924C8.20034 8.3477 8.20458 8.32637 8.21282 8.30646C8.22106 8.28656 8.23314 8.26847 8.24837 8.25324C8.2636 8.238 8.28169 8.22592 8.30159 8.21768C8.3215 8.20944 8.34283 8.20521 8.36437 8.20522C8.38592 8.20521 8.40725 8.20944 8.42716 8.21768C8.44706 8.22592 8.46515 8.238 8.48038 8.25324C8.49561 8.26847 8.50769 8.28656 8.51593 8.30646C8.52417 8.32637 8.52841 8.3477 8.5284 8.36924V9.68145C8.52841 9.703 8.52418 9.72433 8.51594 9.74424C8.50771 9.76415 8.49563 9.78224 8.48039 9.79747C8.46516 9.81271 8.44707 9.82479 8.42716 9.83302C8.40725 9.84126 8.38592 9.84549 8.36437 9.84548ZM6.39603 9.84548C6.30539 9.84548 6.23197 9.77214 6.23197 9.68145V8.36924C6.23197 8.2786 6.30535 8.20522 6.39603 8.20522C6.48672 8.20522 6.56006 8.2786 6.56006 8.36924V9.68145C6.56007 9.703 6.55583 9.72433 6.54759 9.74424C6.53935 9.76414 6.52727 9.78223 6.51204 9.79746C6.49681 9.81269 6.47872 9.82477 6.45881 9.83301C6.43891 9.84125 6.41758 9.84549 6.39603 9.84548ZM5.41186 6.89297C5.37942 6.89298 5.3477 6.88337 5.32072 6.86536C5.29374 6.84734 5.27271 6.82172 5.26029 6.79175C5.24787 6.76178 5.24462 6.72879 5.25096 6.69697C5.25729 6.66515 5.27292 6.63593 5.29587 6.61299L6.93617 4.9727C6.96693 4.94194 7.00864 4.92466 7.05214 4.92466C7.09564 4.92466 7.13735 4.94194 7.16811 4.9727C7.19887 5.00345 7.21615 5.04517 7.21615 5.08867C7.21615 5.13217 7.19887 5.17388 7.16811 5.20464L5.52782 6.84494C5.51261 6.86019 5.49453 6.87228 5.47463 6.88052C5.45473 6.88877 5.4334 6.893 5.41186 6.89297ZM9.34854 6.89297C9.32701 6.893 9.30567 6.88877 9.28577 6.88052C9.26588 6.87228 9.2478 6.86019 9.23259 6.84494L7.5923 5.20464C7.57707 5.18941 7.56499 5.17133 7.55674 5.15143C7.5485 5.13153 7.54426 5.11021 7.54426 5.08867C7.54426 5.06713 7.5485 5.0458 7.55674 5.02591C7.56499 5.00601 7.57707 4.98793 7.5923 4.9727C7.60753 4.95747 7.62561 4.94539 7.6455 4.93714C7.6654 4.9289 7.68673 4.92466 7.70827 4.92466C7.72981 4.92466 7.75113 4.9289 7.77103 4.93714C7.79093 4.94539 7.80901 4.95747 7.82424 4.9727L9.46454 6.61299C9.48749 6.63593 9.50312 6.66515 9.50945 6.69697C9.51578 6.72879 9.51254 6.76178 9.50012 6.79175C9.4877 6.82172 9.46667 6.84734 9.43969 6.86536C9.41271 6.88337 9.38099 6.89298 9.34854 6.89297Z" fill="black"/>
</g>
<defs>
<clipPath id="clip0_144_14">
<rect width="21" height="21" fill="white"/>
</clipPath>
</defs>
</svg>
