<svg width="42" height="41" viewBox="0 0 42 41" fill="none" xmlns="http://www.w3.org/2000/svg">
<path d="M5.25 18.7915V19.9165C5.25 21.8021 5.25 22.7449 5.83579 23.3307C6.42157 23.9165 7.36438 23.9165 9.25 23.9165H12.5695C13.2602 23.9165 13.6056 23.9165 13.8665 24.1031C14.1275 24.2898 14.2391 24.6166 14.4622 25.2702L15.2878 27.6878C15.5109 28.3414 15.6225 28.6682 15.8835 28.8549C16.1444 29.0415 16.4898 29.0415 17.1805 29.0415H24.8195C25.5102 29.0415 25.8556 29.0415 26.1165 28.8549C26.3775 28.6682 26.4891 28.3414 26.7122 27.6878L27.5378 25.2702C27.7609 24.6166 27.8725 24.2898 28.1335 24.1031C28.3944 23.9165 28.7398 23.9165 29.4305 23.9165H32.75C34.6356 23.9165 35.5784 23.9165 36.1642 23.3307C36.75 22.7449 36.75 21.8021 36.75 19.9165V18.7915" stroke="#222222"/>
<path d="M14 15.375L21 20.5M21 20.5L28 15.375M21 20.5L21 3.41667" stroke="#222222"/>
<path d="M28 8.5415H32.75C34.6356 8.5415 35.5784 8.5415 36.1642 9.12729C36.75 9.71308 36.75 10.6559 36.75 12.5415V31.8748C36.75 33.7605 36.75 34.7033 36.1642 35.2891C35.5784 35.8748 34.6356 35.8748 32.75 35.8748H9.25C7.36438 35.8748 6.42157 35.8748 5.83579 35.2891C5.25 34.7033 5.25 33.7605 5.25 31.8748V12.5415C5.25 10.6559 5.25 9.71308 5.83579 9.12729C6.42157 8.5415 7.36438 8.5415 9.25 8.5415H14" stroke="#222222"/>
</svg>
