<svg width="156" height="156" viewBox="0 0 156 156" fill="none" xmlns="http://www.w3.org/2000/svg">
<path d="M134.005 61.1022C134.881 62.1404 134.881 63.5953 134.005 64.6335C128.124 71.607 104.917 96.8538 77.1836 96.8538C49.4504 96.8538 26.243 71.607 20.3618 64.6335C19.4862 63.5953 19.4862 62.1404 20.3618 61.1022C26.243 54.1287 49.4504 28.8818 77.1836 28.8818C104.917 28.8818 128.124 54.1287 134.005 61.1022Z" fill="#273655"/>
<circle cx="77.1841" cy="62.8679" r="21.8481" fill="#94A0B1"/>
<path d="M92.9635 55.5851C96.3152 55.5851 99.0324 52.868 99.0324 49.5162C99.0324 46.1644 96.3152 43.4473 92.9635 43.4473C89.6117 43.4473 86.8945 46.1644 86.8945 49.5162C86.8945 52.868 89.6117 55.5851 92.9635 55.5851Z" fill="white"/>
<path d="M85.6804 60.4402C87.6915 60.4402 89.3218 58.8099 89.3218 56.7988C89.3218 54.7878 87.6915 53.1575 85.6804 53.1575C83.6694 53.1575 82.0391 54.7878 82.0391 56.7988C82.0391 58.8099 83.6694 60.4402 85.6804 60.4402Z" fill="white"/>
<path d="M10 29V14H25" stroke="#273655" stroke-width="3" stroke-linecap="round" stroke-linejoin="round"/>
<path d="M10 107V122H25" stroke="#273655" stroke-width="3" stroke-linecap="round" stroke-linejoin="round"/>
<path d="M142 29V14H127" stroke="#273655" stroke-width="3" stroke-linecap="round" stroke-linejoin="round"/>
<path d="M142 107V122H127" stroke="#273655" stroke-width="3" stroke-linecap="round" stroke-linejoin="round"/>
</svg>
