<svg width="18" height="20" viewBox="0 0 18 20" fill="none" xmlns="http://www.w3.org/2000/svg">
<path d="M18 18.7102C18 18.9755 17.8946 19.2298 17.7071 19.4173C17.5196 19.6049 17.2652 19.7102 17 19.7102H1C0.734784 19.7102 0.48043 19.6049 0.292893 19.4173C0.105357 19.2298 2.4071e-07 18.9755 2.4071e-07 18.7102V8.20023C-0.000105484 8.04785 0.0346172 7.89745 0.101516 7.76053C0.168415 7.62362 0.26572 7.5038 0.386 7.41023L8.386 1.18823C8.56154 1.05168 8.7776 0.977539 9 0.977539C9.2224 0.977539 9.43846 1.05168 9.614 1.18823L17.614 7.41023C17.7343 7.5038 17.8316 7.62362 17.8985 7.76053C17.9654 7.89745 18.0001 8.04785 18 8.20023V18.7102ZM16 17.7102V8.68823L9 3.24423L2 8.68823V17.7102H16ZM4 13.7102H14V15.7102H4V13.7102Z" fill="#263554"/>
</svg>
