<svg width="33" height="32" viewBox="0 0 33 32" fill="none" xmlns="http://www.w3.org/2000/svg">
<path d="M12.8491 0.293945C16.1078 0.293945 16.5167 0.307555 17.7964 0.363281C19.0736 0.418882 19.9462 0.612366 20.7095 0.895508C21.4986 1.18815 22.1683 1.57911 22.8354 2.21582C23.5026 2.85257 23.9126 3.49198 24.2192 4.24512C24.5158 4.97355 24.7186 5.80651 24.7769 7.02539C24.8352 8.2466 24.8491 8.63699 24.8491 11.7471C24.8491 14.8572 24.8352 15.2474 24.7769 16.4688C24.7186 17.6877 24.5158 18.5206 24.2192 19.249C23.9126 20.002 23.5023 20.6407 22.8354 21.2773C22.1683 21.9141 21.4986 22.3059 20.7095 22.5986C19.9462 22.8817 19.0736 23.0753 17.7964 23.1309C16.5167 23.1866 16.1078 23.2002 12.8491 23.2002C9.59038 23.2002 9.18154 23.1866 7.90186 23.1309C6.62462 23.0753 5.75205 22.8817 4.98877 22.5986C4.19966 22.3059 3.52996 21.9141 2.86279 21.2773C2.19592 20.6407 1.78556 20.002 1.479 19.249C1.18237 18.5206 0.979638 17.6877 0.921387 16.4688C0.863 15.2474 0.849121 14.8572 0.849121 11.7471C0.849121 8.63699 0.863006 8.2466 0.921387 7.02539C0.979634 5.80652 1.18241 4.97354 1.479 4.24512C1.78562 3.49198 2.19568 2.85257 2.86279 2.21582C3.52996 1.57911 4.19966 1.18815 4.98877 0.895508C5.75206 0.612366 6.6246 0.418882 7.90186 0.363281C9.18154 0.307555 9.59037 0.293945 12.8491 0.293945ZM12.8491 2.35742C9.64531 2.35742 9.26553 2.36972 8.00049 2.4248C6.83069 2.47571 6.19482 2.66153 5.77197 2.81836C5.21184 3.02613 4.81198 3.27498 4.39209 3.67578C3.9723 4.07643 3.71227 4.45776 3.49463 4.99219C3.33029 5.39576 3.13489 6.00248 3.08154 7.11914C3.02382 8.3267 3.01123 8.68909 3.01123 11.7471C3.01123 14.8051 3.02381 15.1673 3.08154 16.375C3.13489 17.4916 3.33029 18.0984 3.49463 18.502C3.71227 19.0363 3.97233 19.4177 4.39209 19.8184C4.81197 20.2191 5.21187 20.467 5.77197 20.6748C6.19482 20.8317 6.8305 21.0184 8.00049 21.0693C9.26538 21.1244 9.64507 21.1367 12.8491 21.1367C16.0531 21.1367 16.4329 21.1244 17.6978 21.0693C18.8677 21.0184 19.5034 20.8317 19.9263 20.6748C20.4864 20.467 20.8863 20.2191 21.3062 19.8184C21.726 19.4177 21.986 19.0363 22.2036 18.502C22.368 18.0984 22.5633 17.4916 22.6167 16.375C22.6744 15.1673 22.687 14.8051 22.687 11.7471C22.687 8.68909 22.6744 8.3267 22.6167 7.11914C22.5633 6.00248 22.368 5.39576 22.2036 4.99219C21.986 4.45776 21.7259 4.07643 21.3062 3.67578C20.8863 3.27498 20.4864 3.02613 19.9263 2.81836C19.5034 2.66153 18.8676 2.47572 17.6978 2.4248C16.4327 2.36972 16.0529 2.35742 12.8491 2.35742ZM12.8491 5.86523C16.2524 5.86523 19.0112 8.49888 19.0112 11.7471C19.0112 14.9952 16.2524 17.6279 12.8491 17.6279C9.44584 17.6279 6.68705 14.9952 6.68701 11.7471C6.68701 8.49889 9.44582 5.86524 12.8491 5.86523ZM12.8491 7.92969C10.64 7.9297 8.84912 9.6386 8.84912 11.7471C8.84916 13.8555 10.64 15.5644 12.8491 15.5645C15.0582 15.5645 16.8491 13.8555 16.8491 11.7471C16.8491 9.63859 15.0582 7.92969 12.8491 7.92969ZM19.2544 4.25879C20.0497 4.25879 20.6948 4.87474 20.6948 5.63379C20.6946 6.39263 20.0495 7.00781 19.2544 7.00781C18.4595 7.00764 17.8152 6.39252 17.8149 5.63379C17.8149 4.87485 18.4593 4.25896 19.2544 4.25879Z" fill="white"/>
</svg>
