<svg width="33" height="32" viewBox="0 0 33 32" fill="none" xmlns="http://www.w3.org/2000/svg">
<path d="M9.79565 26.0381H5.11792V12.2061H9.79565V26.0381ZM22.5759 12.0732C25.9005 12.0732 28.5124 14.0626 28.5125 18.3467V26.0381H23.2078V18.8799C23.2077 17.0064 22.378 15.7275 20.5535 15.7275C19.1581 15.7277 18.3825 16.5911 18.0212 17.4229C17.8859 17.7214 17.907 18.137 17.907 18.5527V26.0381H12.6521C12.6521 26.0381 12.7198 13.3589 12.6521 12.2061H17.907V14.377C18.2174 13.4278 19.8963 12.0732 22.5759 12.0732ZM7.36987 5.67676C9.09558 5.67676 10.1572 6.70925 10.1912 8.07422C10.1912 9.41445 9.09578 10.4755 7.33765 10.4756H7.30347C5.61023 10.4755 4.51245 9.41836 4.51245 8.07812C4.51255 6.71188 5.64279 5.67678 7.36987 5.67676Z" fill="white"/>
</svg>
