<svg width="45" height="40" viewBox="0 0 45 40" fill="none" xmlns="http://www.w3.org/2000/svg">
<path fill-rule="evenodd" clip-rule="evenodd" d="M39.2458 27.0841L39.3819 12.8883C39.4293 7.94133 35.6128 4.80928 30.1699 4.76602L15.4829 4.64929C10.0401 4.60604 6.16433 7.66058 6.11676 12.6239L5.98075 26.8181C5.93319 31.7815 9.74976 34.9004 15.1926 34.9437L29.8796 35.0604C35.3225 35.1037 39.1983 32.0458 39.2458 27.0841Z" stroke="#6B6B6B" stroke-width="1.5" stroke-linecap="round" stroke-linejoin="round"/>
<path d="M20.6005 12.5018C20.6109 11.4193 21.5849 10.5477 22.7716 10.5571C23.9584 10.5665 24.9174 11.4536 24.907 12.536C24.8966 13.6184 23.9208 14.4901 22.734 14.4806C21.5473 14.4712 20.5901 13.5842 20.6005 12.5018Z" fill="black"/>
<path d="M20.5302 19.8377C20.5406 18.7553 21.5146 17.8836 22.7013 17.893C23.8881 17.9025 24.847 18.7895 24.8367 19.8719C24.8263 20.9543 23.8505 21.826 22.6637 21.8166C21.477 21.8071 20.5198 20.9201 20.5302 19.8377Z" fill="black"/>
<path d="M20.4599 27.1736C20.4703 26.0912 21.4443 25.2195 22.631 25.229C23.8178 25.2384 24.7767 26.1254 24.7664 27.2079C24.756 28.2903 23.7802 29.1619 22.5934 29.1525C21.4067 29.1431 20.4495 28.256 20.4599 27.1736Z" fill="black"/>
</svg>
