<svg width="56" height="56" viewBox="0 0 56 56" fill="none" xmlns="http://www.w3.org/2000/svg">
<path d="M8.16699 33.8333V43.5C8.16699 44.6046 9.06243 45.5 10.167 45.5H45.8337C46.9382 45.5 47.8337 44.6046 47.8337 43.5V38.5M8.16699 26.8333V23.8333C8.16699 21.6242 9.95785 19.8333 12.167 19.8333H12.395C14.0624 19.8333 15.5549 18.799 16.1403 17.2378L18.1803 11.7978C18.4731 11.0171 19.2193 10.5 20.053 10.5H35.9477C36.7814 10.5 37.5276 11.0171 37.8203 11.7978L39.8604 17.2378C40.4458 18.799 41.9383 19.8333 43.6057 19.8333H43.8337C46.0428 19.8333 47.8337 21.6242 47.8337 23.8333V31.5" stroke="white" stroke-linecap="round"/>
<circle cx="28.0003" cy="30.3333" r="8.83333" stroke="white"/>
</svg>
