<svg width="32" height="31" viewBox="0 0 32 31" fill="none" xmlns="http://www.w3.org/2000/svg">
<path d="M15.9998 2.54492C21.1598 2.54492 25.3337 6.52832 25.3337 11.4531C25.3335 16.7595 19.4406 24.0762 17.0271 26.8633C16.4938 27.4741 15.5204 27.4741 14.9871 26.8633C12.5604 24.0764 6.66696 16.7597 6.66675 11.4531C6.66675 6.52842 10.8399 2.54509 15.9998 2.54492ZM15.9998 8.27148C14.1599 8.27165 12.6667 9.6971 12.6667 11.4531C12.6669 13.209 14.16 14.6336 15.9998 14.6338C17.8397 14.6338 19.3336 13.2091 19.3337 11.4531C19.3337 9.69699 17.8398 8.27148 15.9998 8.27148Z" fill="white"/>
</svg>
