<svg width="65" height="66" viewBox="0 0 65 66" fill="none" xmlns="http://www.w3.org/2000/svg">
<path d="M30.3822 60.7235C29.9086 58.4912 27.7502 49.538 19.9791 45.6836C16.4442 43.9304 10.5097 42.6181 8.68436 45.0297C6.76686 47.5629 11.2254 52.2501 14.8668 55.4923C20.8847 60.8505 28.6574 61.0127 30.3823 60.7235" fill="#273655"/>
<path d="M34.6174 60.7235C35.0909 58.4912 37.2494 49.538 45.0204 45.6836C48.5553 43.9304 54.4898 42.6181 56.3152 45.0297C58.2327 47.5629 53.7742 52.2501 50.1327 55.4923C44.1148 60.8505 36.3421 61.0127 34.6172 60.7235" fill="#273655"/>
<path d="M32.5 53.436C35.0743 53.436 37.1612 51.3491 37.1612 48.7748C37.1612 46.2006 35.0743 44.1137 32.5 44.1137C29.9257 44.1137 27.8389 46.2006 27.8389 48.7748C27.8389 51.3491 29.9257 53.436 32.5 53.436Z" fill="#273655"/>
<path d="M30.3822 41.463C29.9086 39.2307 27.7502 30.2775 19.9791 26.4231C16.4442 24.6699 10.5097 23.3576 8.68436 25.7692C6.76686 28.3025 11.2254 32.9896 14.8668 36.2318C20.8847 41.5901 28.6574 41.7523 30.3823 41.463" fill="#273655"/>
<path d="M34.6174 41.463C35.0909 39.2307 37.2494 30.2775 45.0204 26.4231C48.5553 24.6699 54.4898 23.3576 56.3152 25.7692C58.2327 28.3025 53.7742 32.9896 50.1327 36.2318C44.1148 41.5901 36.3421 41.7523 34.6172 41.463" fill="#273655"/>
<path d="M32.5 34.1754C35.0743 34.1754 37.1612 32.0885 37.1612 29.5142C37.1612 26.9399 35.0743 24.8531 32.5 24.8531C29.9257 24.8531 27.8389 26.9399 27.8389 29.5142C27.8389 32.0885 29.9257 34.1754 32.5 34.1754Z" fill="#273655"/>
<path d="M30.3822 22.2024C29.9086 19.9701 27.7502 11.0168 19.9791 7.1625C16.4442 5.40928 10.5097 4.09693 8.68436 6.5086C6.76686 9.04181 11.2254 13.729 14.8668 16.9712C20.8847 22.3294 28.6574 22.4916 30.3823 22.2024" fill="#273655"/>
<path d="M34.6174 22.2024C35.0909 19.9701 37.2494 11.0168 45.0204 7.1625C48.5553 5.40928 54.4898 4.09693 56.3152 6.5086C58.2327 9.04181 53.7742 13.729 50.1327 16.9712C44.1148 22.3294 36.3421 22.4916 34.6172 22.2024" fill="#273655"/>
<path d="M32.5 14.9147C35.0743 14.9147 37.1612 12.8279 37.1612 10.2536C37.1612 7.67929 35.0743 5.59242 32.5 5.59242C29.9257 5.59242 27.8389 7.67929 27.8389 10.2536C27.8389 12.8279 29.9257 14.9147 32.5 14.9147Z" fill="#273655"/>
</svg>
